<svg width="120" height="52" viewBox="0 0 120 52" fill="none" xmlns="http://www.w3.org/2000/svg">
<g id="Chai_Kings_logo 1">
<g id="Group">
<g id="Group_2">
<path id="Vector" d="M34.1907 30.7229C34.2383 31.3908 34.2859 32.0587 34.0002 32.6789C33.7145 33.2991 33.2383 33.7761 32.7145 34.2055C32.3811 34.4917 32.0478 34.778 31.8097 35.1119C31.5716 35.4458 31.4288 35.8275 31.2859 36.3046C31.0954 36.9247 30.8573 37.5926 30.3811 38.0697C29.9049 38.5468 29.2383 38.7853 28.6192 38.9761C28.1907 39.1192 27.7621 39.2624 27.4764 39.4532C27.143 39.6917 26.8573 39.978 26.5716 40.3596C26.143 40.8367 25.7145 41.3614 25.0478 41.6477C24.7145 41.7908 24.3335 41.8385 23.8573 41.8385C23.6192 41.8385 23.3335 41.8385 23.0954 41.7908C22.8573 41.7908 22.6192 41.7431 22.3811 41.7431C22.143 41.7431 22.0002 41.7431 21.8097 41.7908C21.4288 41.8862 21.0478 42.077 20.6192 42.2679C20.0478 42.5541 19.4288 42.8403 18.7145 42.8881C18.0002 42.8881 17.4288 42.6018 16.8573 42.3156C16.4764 42.1247 16.0478 41.9339 15.6669 41.8385C15.524 41.7908 15.3335 41.7908 15.0954 41.7908C14.8573 41.7908 14.6192 41.7908 14.3811 41.8385C14.143 41.8385 13.8573 41.8862 13.6192 41.8862C13.143 41.8862 12.7621 41.8385 12.4288 41.6954C11.8097 41.4092 11.3335 40.9321 10.9049 40.4073C10.6192 40.0734 10.3335 39.7394 10.0002 39.5009C9.66685 39.2624 9.23828 39.1192 8.80971 38.9761C8.19066 38.7853 7.524 38.5468 7.0478 38.0697C6.57161 37.5926 6.33352 36.9247 6.14304 36.3046C6.00019 35.8752 5.85733 35.4458 5.66685 35.1596C5.42876 34.8257 5.14304 34.5394 4.76209 34.2532C4.2859 33.8238 3.76209 33.3945 3.47638 32.7266C3.19066 32.0587 3.23828 31.3908 3.2859 30.7706C3.33352 30.3413 3.33352 29.9119 3.2859 29.4825C3.19066 29.1009 3.00019 28.7192 2.80971 28.2899C2.524 27.7174 2.23828 27.0972 2.23828 26.3816C2.23828 25.666 2.524 25.0936 2.80971 24.5211C3.00019 24.1394 3.19066 23.7101 3.2859 23.3284C3.38114 22.9468 3.33352 22.5174 3.2859 22.0403C3.23828 21.3725 3.19066 20.7046 3.47638 20.0844C3.76209 19.4642 4.23828 18.9871 4.76209 18.5578C5.09542 18.2715 5.42876 17.9853 5.66685 17.6514C5.90495 17.3174 6.0478 16.9358 6.19066 16.4587C6.38114 15.8385 6.61923 15.1706 7.09542 14.6936C7.57161 14.2165 8.23828 13.978 8.85733 13.7871C9.2859 13.644 9.71447 13.5009 10.0002 13.3101C10.3335 13.0715 10.6192 12.7853 10.9049 12.4036C11.3335 11.9266 11.7621 11.4018 12.4288 11.1156C12.7621 10.9725 13.143 10.9247 13.6192 10.9247C13.8573 10.9247 14.143 10.9247 14.3811 10.9725C14.6192 10.9725 14.8573 11.0202 15.0954 11.0202C15.3335 11.0202 15.4764 11.0202 15.6669 10.9725C16.0478 10.877 16.4288 10.6862 16.8573 10.4954C17.4288 10.2092 18.0478 9.92291 18.7621 9.92291C19.4764 9.92291 20.0478 10.2092 20.6192 10.4954C21.0002 10.6862 21.4288 10.877 21.8097 10.9725C21.9526 11.0202 22.143 11.0202 22.3811 11.0202C22.6192 11.0202 22.8573 11.0202 23.0954 10.9725C23.3335 10.9725 23.6192 10.9247 23.8573 10.9247C24.3335 10.9247 24.7145 10.9725 25.0478 11.1156C25.6669 11.4018 26.143 11.8789 26.5716 12.4036C26.8573 12.7376 27.143 13.0715 27.4764 13.3101C27.8097 13.5486 28.1907 13.6917 28.6669 13.8348C29.2859 14.0257 29.9526 14.2642 30.4288 14.7413C30.9049 15.2183 31.143 15.8862 31.3335 16.5064C31.4764 16.9358 31.6192 17.3651 31.8097 17.6514C32.0478 17.9853 32.3335 18.2715 32.7145 18.5578C33.1907 18.9871 33.7145 19.4165 34.0002 20.0844C34.2859 20.7523 34.2383 21.4202 34.1907 22.0403C34.143 22.5174 34.143 22.8991 34.1907 23.3284C34.2859 23.7101 34.4764 24.0917 34.6669 24.5211C34.9526 25.0936 35.2383 25.7137 35.2383 26.4293C35.2383 27.1449 34.9526 27.7174 34.6669 28.2899C34.4764 28.6715 34.2859 29.1009 34.1907 29.4825C34.143 29.8165 34.1907 30.2458 34.1907 30.7229Z" fill="#429559"/>
<path id="Vector_2" d="M25.1428 16.077H26.4762C26.2857 17.1743 25.9524 20.8 25.4762 23.5192L24.9047 23.5669C23.9047 29.9119 22.4762 38.5468 22.4285 38.5468H15.1905C15.1428 38.5468 13.7143 29.9119 12.7143 23.5669L12.0952 23.5192C11.6666 20.7523 11.2857 17.1266 11.0952 16.077H12.5238" stroke="white" stroke-miterlimit="10"/>
<path id="Vector_3" d="M23.6668 18.3193C23.7144 18.4624 23.762 18.6055 23.762 18.7963C23.762 19.4165 23.2858 19.8936 22.762 19.8936C22.2858 19.8936 21.9049 19.5596 21.762 19.0826C22.0001 18.9871 22.143 18.7009 22.143 18.4147C22.143 18.033 21.8573 17.6991 21.4763 17.6991C21.0954 17.6991 20.8096 18.033 20.8096 18.4147C20.8096 18.7009 20.9525 18.9394 21.1906 19.0826C21.0477 19.5596 20.6668 19.8936 20.1906 19.8936C19.6192 19.8936 19.143 19.3688 19.143 18.7486C19.143 18.3193 19.3811 17.9376 19.7144 17.7468L18.762 16.9358L18.7144 16.8881L18.6668 16.9358L17.7144 17.7468C18.0477 17.9376 18.2858 18.3193 18.2858 18.7486C18.2858 19.3688 17.8096 19.8936 17.2382 19.8936C16.762 19.8936 16.3811 19.5596 16.2382 19.0826C16.4763 18.9871 16.6192 18.7009 16.6192 18.4147C16.6192 18.033 16.3335 17.6991 15.9525 17.6991C15.5715 17.6991 15.2858 18.033 15.2858 18.4147C15.2858 18.7009 15.4287 18.9394 15.6668 19.0826C15.5715 19.5596 15.143 19.8936 14.6668 19.8936C14.0954 19.8936 13.6668 19.4165 13.6668 18.7963C13.6668 18.6532 13.7144 18.4624 13.762 18.3193L12.5239 17.8899L13.762 20.7046H18.6192H18.6668H23.5239L24.762 17.8899L23.6668 18.3193Z" fill="white"/>
<path id="Vector_4" d="M15.5718 25.3321L16.667 36.1615" stroke="white" stroke-miterlimit="10"/>
<path id="Vector_5" d="M22.1429 25.3321L21 36.1615" stroke="white" stroke-miterlimit="10"/>
<path id="Vector_6" d="M18.7622 25.3321L18.8098 36.1615" stroke="white" stroke-miterlimit="10"/>
<path id="Vector_7" d="M14.667 25.2367H16.3813" stroke="white" stroke-miterlimit="10"/>
<path id="Vector_8" d="M17.667 25.2367H19.9051" stroke="white" stroke-miterlimit="10"/>
<path id="Vector_9" d="M21.3813 25.2844H23.0004" stroke="white" stroke-miterlimit="10"/>
<path id="Vector_10" d="M23.6669 21.277H13.8574V22.2789H23.6669V21.277Z" fill="white"/>
</g>
<g id="Group_3">
<path id="Vector_11" d="M108.572 23.3284C108.714 23.233 108.762 23.1376 108.762 23.0422C108.857 22.5174 109.048 22.4697 109.476 22.422C109.857 22.3743 110.238 22.3743 110.619 22.422C111.095 22.4697 111.191 22.5651 111.143 23.0422C111.095 23.71 111 24.3779 110.905 25.0458C110.667 26.811 110.476 28.5761 110.238 30.3412C110.143 31.1045 109.857 31.7724 109.429 32.3926C108.381 33.8715 106.143 34.444 104.524 33.6807C104 33.4422 103.572 33.1082 103.333 32.5834C103.238 32.3926 103.143 32.2018 103.143 32.011C103.143 31.8678 103.095 31.677 103.238 31.5816C103.429 31.4385 103.572 31.5816 103.714 31.677C104.143 32.011 104.619 32.2495 105.191 32.3449C106.524 32.5834 107.572 31.8678 107.857 30.5321C107.953 30.1027 108 29.6734 108.048 29.1963C107.81 29.1963 107.714 29.3871 107.619 29.4825C107.095 29.9596 106.476 30.2935 105.714 30.2935C104.619 30.3412 103.762 29.8165 103.333 28.7669C102.905 27.7174 102.953 26.6678 103.191 25.6183C103.381 24.7596 103.762 23.9963 104.381 23.3761C105.191 22.5651 106.143 22.1834 107.286 22.422C107.81 22.5174 108.238 22.899 108.572 23.3284ZM108.333 26C108.333 25.4752 108.333 25.1412 108.191 24.8073C107.857 23.8532 106.953 23.6623 106.286 24.3779C105.572 25.0935 105.238 26.9064 105.667 27.8128C105.953 28.433 106.619 28.6715 107.238 28.3376C107.476 28.1945 107.667 27.9559 107.857 27.7174C108.191 27.1449 108.333 26.5247 108.333 26Z" fill="#5C5D5F"/>
<path id="Vector_12" d="M108.572 23.3284C108.714 23.233 108.762 23.1376 108.762 23.0422C108.857 22.5174 109.048 22.4697 109.476 22.422C109.857 22.3743 110.238 22.3743 110.619 22.422C111.095 22.4697 111.191 22.5651 111.143 23.0422C111.095 23.71 111 24.3779 110.905 25.0458C110.667 26.811 110.476 28.5761 110.238 30.3412C110.143 31.1045 109.857 31.7724 109.429 32.3926C108.381 33.8715 106.143 34.444 104.524 33.6807C104 33.4422 103.572 33.1082 103.333 32.5834C103.238 32.3926 103.143 32.2018 103.143 32.011C103.143 31.8678 103.095 31.677 103.238 31.5816C103.429 31.4385 103.572 31.5816 103.714 31.677C104.143 32.011 104.619 32.2495 105.191 32.3449C106.524 32.5834 107.572 31.8678 107.857 30.5321C107.953 30.1027 108 29.6734 108.048 29.1963C107.81 29.1963 107.714 29.3871 107.619 29.4825C107.095 29.9596 106.476 30.2935 105.714 30.2935C104.619 30.3412 103.762 29.8165 103.333 28.7669C102.905 27.7174 102.953 26.6678 103.191 25.6183C103.381 24.7596 103.762 23.9963 104.381 23.3761C105.191 22.5651 106.143 22.1834 107.286 22.422C107.81 22.5174 108.238 22.899 108.572 23.3284ZM108.333 26C108.333 25.4752 108.333 25.1412 108.191 24.8073C107.857 23.8532 106.953 23.6623 106.286 24.3779C105.572 25.0935 105.238 26.9064 105.667 27.8128C105.953 28.433 106.619 28.6715 107.238 28.3376C107.476 28.1945 107.667 27.9559 107.857 27.7174C108.191 27.1449 108.333 26.5247 108.333 26Z" stroke="white" stroke-width="0.5" stroke-miterlimit="10"/>
<path id="Vector_13" d="M81.3339 21.8018C81.3339 21.611 81.3339 21.4678 81.3339 21.277C81.2862 20.5614 80.81 20.3229 80.191 20.6091C79.5719 20.9431 79.2386 21.4678 79.1434 22.1357C79.0481 22.6128 79.0958 23.0899 79.191 23.5669C79.2862 24.044 79.1434 24.2825 78.6672 24.4256C77.7148 24.8073 76.7624 24.2825 76.572 23.2807C76.3815 22.3265 76.6672 21.5155 77.2386 20.7522C78.0481 19.7027 79.191 19.1779 80.4767 18.9871C80.9053 18.9394 81.2862 18.9394 81.7148 18.9394C83.3339 19.0825 84.1434 20.0366 84.0481 21.7541C84.0005 22.8036 83.8577 23.8054 83.7148 24.8073C83.5243 26.1908 83.3815 27.622 83.191 29.0054C83.0958 29.9596 83.0481 30.0073 82.0958 30.1027C81.7148 30.1504 81.2862 30.1504 80.9053 30.055C80.5243 29.9596 80.4767 29.9119 80.4767 29.5302C80.5719 28.7192 80.6672 27.9082 80.7624 27.0972C80.9529 25.5229 81.191 23.9009 81.3815 22.3265C81.3339 22.1834 81.3339 21.9926 81.3339 21.8018Z" fill="#5C5D5F"/>
<path id="Vector_14" d="M81.3339 21.8018C81.3339 21.611 81.3339 21.4678 81.3339 21.277C81.2862 20.5614 80.81 20.3229 80.191 20.6091C79.5719 20.9431 79.2386 21.4678 79.1434 22.1357C79.0481 22.6128 79.0958 23.0899 79.191 23.5669C79.2862 24.044 79.1434 24.2825 78.6672 24.4256C77.7148 24.8073 76.7624 24.2825 76.572 23.2807C76.3815 22.3265 76.6672 21.5155 77.2386 20.7522C78.0481 19.7027 79.191 19.1779 80.4767 18.9871C80.9053 18.9394 81.2862 18.9394 81.7148 18.9394C83.3339 19.0825 84.1434 20.0366 84.0481 21.7541C84.0005 22.8036 83.8577 23.8054 83.7148 24.8073C83.5243 26.1908 83.3815 27.622 83.191 29.0054C83.0958 29.9596 83.0481 30.0073 82.0958 30.1027C81.7148 30.1504 81.2862 30.1504 80.9053 30.055C80.5243 29.9596 80.4767 29.9119 80.4767 29.5302C80.5719 28.7192 80.6672 27.9082 80.7624 27.0972C80.9529 25.5229 81.191 23.9009 81.3815 22.3265C81.3339 22.1834 81.3339 21.9926 81.3339 21.8018Z" stroke="white" stroke-width="0.5" stroke-miterlimit="10"/>
<path id="Vector_15" d="M97.5716 23.7101C97.8097 23.5192 98.0001 23.3284 98.1906 23.1376C98.8097 22.6128 99.4763 22.2789 100.286 22.2789C101.333 22.2789 102 22.899 102.048 23.9486C102.095 24.6165 101.953 25.2844 101.857 25.9523C101.81 26.5724 101.714 27.1926 101.667 27.8128C101.619 28.1945 101.714 28.5761 102.095 28.8146C102.381 29.0055 102.381 29.1486 102.191 29.4348C101.81 30.055 100.905 30.4367 100.191 30.2935C99.5239 30.1504 99.143 29.7211 99.0954 29.0055C99.0478 28.3376 99.1906 27.6697 99.2858 27.0018C99.3335 26.3339 99.4287 25.6183 99.4763 24.9504C99.5239 24.6165 99.5239 24.2348 99.143 24.044C98.762 23.9009 98.4287 24.0917 98.1906 24.3779C97.6668 24.9504 97.3811 25.6183 97.2382 26.3816C97.0954 27.3357 97.0001 28.2899 96.9049 29.1963C96.8097 30.0073 96.7144 30.1027 95.9049 30.1504C95.5239 30.1504 95.1906 30.1504 94.8097 30.1027C94.3811 30.0073 94.3335 29.9596 94.3811 29.5302C94.4763 28.6715 94.6192 27.8128 94.7144 26.9064C94.8097 26.1908 94.9049 25.5229 95.0001 24.8073C95.0478 24.3779 94.9525 23.9963 94.5716 23.7101C94.3335 23.5669 94.3335 23.3284 94.4763 23.1376C94.8573 22.4697 95.9049 22.088 96.6192 22.2789C97.0954 22.422 97.3335 22.7559 97.4287 23.233C97.5239 23.3761 97.4763 23.5669 97.5716 23.7101Z" fill="#5C5D5F"/>
<path id="Vector_16" d="M97.5716 23.7101C97.8097 23.5192 98.0001 23.3284 98.1906 23.1376C98.8097 22.6128 99.4763 22.2789 100.286 22.2789C101.333 22.2789 102 22.899 102.048 23.9486C102.095 24.6165 101.953 25.2844 101.857 25.9523C101.81 26.5724 101.714 27.1926 101.667 27.8128C101.619 28.1945 101.714 28.5761 102.095 28.8146C102.381 29.0055 102.381 29.1486 102.191 29.4348C101.81 30.055 100.905 30.4367 100.191 30.2935C99.5239 30.1504 99.143 29.7211 99.0954 29.0055C99.0478 28.3376 99.1906 27.6697 99.2858 27.0018C99.3335 26.3339 99.4287 25.6183 99.4763 24.9504C99.5239 24.6165 99.5239 24.2348 99.143 24.044C98.762 23.9009 98.4287 24.0917 98.1906 24.3779C97.6668 24.9504 97.3811 25.6183 97.2382 26.3816C97.0954 27.3357 97.0001 28.2899 96.9049 29.1963C96.8097 30.0073 96.7144 30.1027 95.9049 30.1504C95.5239 30.1504 95.1906 30.1504 94.8097 30.1027C94.3811 30.0073 94.3335 29.9596 94.3811 29.5302C94.4763 28.6715 94.6192 27.8128 94.7144 26.9064C94.8097 26.1908 94.9049 25.5229 95.0001 24.8073C95.0478 24.3779 94.9525 23.9963 94.5716 23.7101C94.3335 23.5669 94.3335 23.3284 94.4763 23.1376C94.8573 22.4697 95.9049 22.088 96.6192 22.2789C97.0954 22.422 97.3335 22.7559 97.4287 23.233C97.5239 23.3761 97.4763 23.5669 97.5716 23.7101Z" stroke="white" stroke-width="0.5" stroke-miterlimit="10"/>
<path id="Vector_17" d="M87.5243 30.3413C86.9052 30.2936 86.429 30.1027 86.0005 29.7688C85.5719 29.4348 85.2862 29.0055 85.0005 28.5284C84.429 27.4789 84.0957 26.3339 83.8576 25.1413C83.81 24.8073 83.9052 24.5211 84.1433 24.2348C85.3814 22.8991 86.5243 21.5156 87.4767 19.9413C87.6195 19.7027 87.81 19.6073 88.0481 19.5119C88.5243 19.4165 89.0481 19.4165 89.5243 19.4642C90.0481 19.5596 90.1433 19.7027 89.81 20.1321C89.0957 21.0862 88.3338 21.9926 87.5243 22.8514C87.1909 23.233 86.8576 23.5669 86.4767 23.9009C86.2862 24.0917 86.2386 24.2825 86.3338 24.5688C86.6671 25.3798 87.0005 26.1431 87.5243 26.8587C87.9528 27.4789 88.4767 27.9082 89.1909 28.2422C89.6671 28.433 89.7147 28.6238 89.4766 29.1009C89.0481 29.8642 88.3814 30.2458 87.5243 30.3413Z" fill="#5C5D5F"/>
<path id="Vector_18" d="M87.5243 30.3413C86.9052 30.2936 86.429 30.1027 86.0005 29.7688C85.5719 29.4348 85.2862 29.0055 85.0005 28.5284C84.429 27.4789 84.0957 26.3339 83.8576 25.1413C83.81 24.8073 83.9052 24.5211 84.1433 24.2348C85.3814 22.8991 86.5243 21.5156 87.4767 19.9413C87.6195 19.7027 87.81 19.6073 88.0481 19.5119C88.5243 19.4165 89.0481 19.4165 89.5243 19.4642C90.0481 19.5596 90.1433 19.7027 89.81 20.1321C89.0957 21.0862 88.3338 21.9926 87.5243 22.8514C87.1909 23.233 86.8576 23.5669 86.4767 23.9009C86.2862 24.0917 86.2386 24.2825 86.3338 24.5688C86.6671 25.3798 87.0005 26.1431 87.5243 26.8587C87.9528 27.4789 88.4767 27.9082 89.1909 28.2422C89.6671 28.433 89.7147 28.6238 89.4766 29.1009C89.0481 29.8642 88.3814 30.2458 87.5243 30.3413Z" stroke="white" stroke-width="0.5" stroke-miterlimit="10"/>
<path id="Vector_19" d="M113.953 30.3412C113.429 30.3412 112.762 30.1981 112.143 29.8642C111.524 29.5302 111.143 29.0055 111.096 28.2899C111 27.2403 112 26.4293 112.953 26.7156C113.429 26.8587 113.524 27.0495 113.381 27.5266C113.381 27.5743 113.334 27.622 113.334 27.6697C113.191 28.1945 113.334 28.6238 113.715 28.8146C114.096 29.0055 114.715 28.9578 115.048 28.6238C115.381 28.2899 115.381 27.8128 115.096 27.3834C114.905 27.0972 114.667 26.8587 114.429 26.6201C114.143 26.2862 113.81 26 113.572 25.6183C113.334 25.2844 113.191 24.9504 113.096 24.5688C112.905 23.6623 113.239 22.899 114.048 22.5174C114.858 22.1357 115.667 22.1834 116.429 22.6128C116.477 22.6605 116.572 22.7082 116.619 22.7559C116.81 22.9467 116.81 23.1376 116.524 23.233C116.477 23.233 116.429 23.233 116.381 23.2807C115.762 23.4715 115.572 23.8532 115.858 24.4734C116 24.7596 116.239 24.9981 116.429 25.2367C116.715 25.5706 117.048 25.8568 117.334 26.1908C118.048 27.0495 118.096 28.0036 117.429 28.9101C117 29.4825 116.429 29.8642 115.715 30.1027C115.239 30.2458 114.715 30.3412 113.953 30.3412Z" fill="#5C5D5F"/>
<path id="Vector_20" d="M113.953 30.3412C113.429 30.3412 112.762 30.1981 112.143 29.8642C111.524 29.5302 111.143 29.0055 111.096 28.2899C111 27.2403 112 26.4293 112.953 26.7156C113.429 26.8587 113.524 27.0495 113.381 27.5266C113.381 27.5743 113.334 27.622 113.334 27.6697C113.191 28.1945 113.334 28.6238 113.715 28.8146C114.096 29.0055 114.715 28.9578 115.048 28.6238C115.381 28.2899 115.381 27.8128 115.096 27.3834C114.905 27.0972 114.667 26.8587 114.429 26.6201C114.143 26.2862 113.81 26 113.572 25.6183C113.334 25.2844 113.191 24.9504 113.096 24.5688C112.905 23.6623 113.239 22.899 114.048 22.5174C114.858 22.1357 115.667 22.1834 116.429 22.6128C116.477 22.6605 116.572 22.7082 116.619 22.7559C116.81 22.9467 116.81 23.1376 116.524 23.233C116.477 23.233 116.429 23.233 116.381 23.2807C115.762 23.4715 115.572 23.8532 115.858 24.4734C116 24.7596 116.239 24.9981 116.429 25.2367C116.715 25.5706 117.048 25.8568 117.334 26.1908C118.048 27.0495 118.096 28.0036 117.429 28.9101C117 29.4825 116.429 29.8642 115.715 30.1027C115.239 30.2458 114.715 30.3412 113.953 30.3412Z" stroke="white" stroke-width="0.5" stroke-miterlimit="10"/>
<path id="Vector_21" d="M90.1431 28.5761C90.1907 28.0036 90.2859 27.288 90.3812 26.5247C90.524 25.3797 90.6669 24.2348 90.8097 23.0898C90.8573 22.5651 90.9526 22.4697 91.4764 22.4219C91.8574 22.3742 92.2383 22.3742 92.6193 22.4219C93.1907 22.4697 93.2859 22.5651 93.2383 23.1375C93.0954 24.4256 92.905 25.7614 92.7621 27.0495C92.7145 27.288 92.7145 27.5265 92.7145 27.8128C92.6669 28.2421 92.7621 28.6238 93.1907 28.8146C93.4288 28.9577 93.4288 29.1486 93.2859 29.3394C92.905 30.1027 91.7145 30.532 90.905 30.1504C90.3812 29.9119 90.1431 29.4825 90.1431 28.5761Z" fill="#5C5D5F"/>
<path id="Vector_22" d="M90.1431 28.5761C90.1907 28.0036 90.2859 27.288 90.3812 26.5247C90.524 25.3797 90.6669 24.2348 90.8097 23.0898C90.8573 22.5651 90.9526 22.4697 91.4764 22.4219C91.8574 22.3742 92.2383 22.3742 92.6193 22.4219C93.1907 22.4697 93.2859 22.5651 93.2383 23.1375C93.0954 24.4256 92.905 25.7614 92.7621 27.0495C92.7145 27.288 92.7145 27.5265 92.7145 27.8128C92.6669 28.2421 92.7621 28.6238 93.1907 28.8146C93.4288 28.9577 93.4288 29.1486 93.2859 29.3394C92.905 30.1027 91.7145 30.532 90.905 30.1504C90.3812 29.9119 90.1431 29.4825 90.1431 28.5761Z" stroke="white" stroke-width="0.5" stroke-miterlimit="10"/>
<path id="Vector_23" d="M43.5718 27.2403C43.6194 24.9027 44.3813 22.8513 46.0956 21.1816C47.2384 20.0844 48.5718 19.5596 50.1432 19.655C50.8575 19.7027 51.5242 19.9413 52.0956 20.3706C53.0956 21.1816 53.3337 22.6605 52.667 23.8055C52.2384 24.4734 51.4289 24.7596 50.7146 24.4734C50.3337 24.2825 50.1908 24.0917 50.2384 23.6624C50.2861 23.2807 50.3337 22.899 50.3337 22.5174C50.2384 21.4202 49.4289 20.9908 48.4765 21.5156C48.1432 21.7064 47.8575 21.9449 47.6194 22.2789C46.9527 23.1853 46.5718 24.1871 46.4289 25.2844C46.3337 26 46.2384 26.7633 46.4289 27.4789C46.4765 27.6697 46.4765 27.8605 46.5718 28.0513C46.9527 29.2917 47.8575 29.9119 49.1432 29.8165C49.9527 29.7688 50.6194 29.4825 51.2384 28.9578C51.4289 28.8146 51.6194 28.6238 51.8099 28.4807C51.9527 28.3853 52.0956 28.3376 52.2384 28.433C52.3813 28.5284 52.3813 28.7192 52.3337 28.8624C52.2861 29.0055 52.2861 29.1009 52.1908 29.244C51.4765 30.7229 50.3813 31.8202 48.7146 32.1064C46.8099 32.488 44.6194 31.7724 43.8575 29.244C43.6194 28.5761 43.5718 27.9082 43.5718 27.2403Z" fill="#5C5D5F"/>
<path id="Vector_24" d="M43.5718 27.2403C43.6194 24.9027 44.3813 22.8513 46.0956 21.1816C47.2384 20.0844 48.5718 19.5596 50.1432 19.655C50.8575 19.7027 51.5242 19.9413 52.0956 20.3706C53.0956 21.1816 53.3337 22.6605 52.667 23.8055C52.2384 24.4734 51.4289 24.7596 50.7146 24.4734C50.3337 24.2825 50.1908 24.0917 50.2384 23.6624C50.2861 23.2807 50.3337 22.899 50.3337 22.5174C50.2384 21.4202 49.4289 20.9908 48.4765 21.5156C48.1432 21.7064 47.8575 21.9449 47.6194 22.2789C46.9527 23.1853 46.5718 24.1871 46.4289 25.2844C46.3337 26 46.2384 26.7633 46.4289 27.4789C46.4765 27.6697 46.4765 27.8605 46.5718 28.0513C46.9527 29.2917 47.8575 29.9119 49.1432 29.8165C49.9527 29.7688 50.6194 29.4825 51.2384 28.9578C51.4289 28.8146 51.6194 28.6238 51.8099 28.4807C51.9527 28.3853 52.0956 28.3376 52.2384 28.433C52.3813 28.5284 52.3813 28.7192 52.3337 28.8624C52.2861 29.0055 52.2861 29.1009 52.1908 29.244C51.4765 30.7229 50.3813 31.8202 48.7146 32.1064C46.8099 32.488 44.6194 31.7724 43.8575 29.244C43.6194 28.5761 43.5718 27.9082 43.5718 27.2403Z" stroke="white" stroke-width="0.5" stroke-miterlimit="10"/>
<path id="Vector_25" d="M56.0957 24.0917C56.3338 23.9486 56.4766 23.7578 56.6195 23.6146C57.2386 23.0422 57.9528 22.6128 58.81 22.6128C59.8576 22.6128 60.5243 23.2807 60.5719 24.2825C60.6195 24.9981 60.4767 25.666 60.3814 26.3816C60.3338 26.9541 60.2386 27.5743 60.1909 28.1468C60.1433 28.5284 60.2862 28.8624 60.6195 29.1009C60.9052 29.2917 60.9052 29.4348 60.7624 29.7211C60.3338 30.4367 59.2386 30.8183 58.4767 30.4844C57.9528 30.2458 57.7147 29.8165 57.6671 29.2917C57.6195 28.8146 57.7624 28.3376 57.81 27.8605C57.9052 27.0972 58.0005 26.3816 58.0957 25.666C58.1433 25.3798 58.1433 25.1413 58.0957 24.855C57.9528 24.4257 57.6671 24.2825 57.2386 24.4734C56.9528 24.5688 56.7147 24.8073 56.5243 25.0458C56.0957 25.5706 55.9052 26.2385 55.81 26.9064C55.6671 27.8605 55.5719 28.8146 55.4766 29.7211C55.3814 30.3413 55.3338 30.4367 54.7147 30.4844C54.2862 30.5321 53.8576 30.5321 53.4767 30.4367C53.0481 30.3413 53.0005 30.2935 53.0481 29.8642C53.1433 29.0532 53.2386 28.2899 53.3338 27.4789C53.6195 25.0935 53.9052 22.6605 54.1909 20.2752C54.1909 20.0844 54.2386 19.9413 54.2386 19.7504C54.3338 19.0348 54.3814 19.0348 55.0957 18.9394C55.4766 18.8917 55.8576 18.8917 56.2386 18.9871C56.6671 19.0825 56.7624 19.1302 56.7147 19.6073C56.6195 20.5614 56.4766 21.5156 56.3814 22.5174C56.2386 23.0422 56.1909 23.5192 56.0957 24.0917Z" fill="#5C5D5F"/>
<path id="Vector_26" d="M56.0957 24.0917C56.3338 23.9486 56.4766 23.7578 56.6195 23.6146C57.2386 23.0422 57.9528 22.6128 58.81 22.6128C59.8576 22.6128 60.5243 23.2807 60.5719 24.2825C60.6195 24.9981 60.4767 25.666 60.3814 26.3816C60.3338 26.9541 60.2386 27.5743 60.1909 28.1468C60.1433 28.5284 60.2862 28.8624 60.6195 29.1009C60.9052 29.2917 60.9052 29.4348 60.7624 29.7211C60.3338 30.4367 59.2386 30.8183 58.4767 30.4844C57.9528 30.2458 57.7147 29.8165 57.6671 29.2917C57.6195 28.8146 57.7624 28.3376 57.81 27.8605C57.9052 27.0972 58.0005 26.3816 58.0957 25.666C58.1433 25.3798 58.1433 25.1413 58.0957 24.855C57.9528 24.4257 57.6671 24.2825 57.2386 24.4734C56.9528 24.5688 56.7147 24.8073 56.5243 25.0458C56.0957 25.5706 55.9052 26.2385 55.81 26.9064C55.6671 27.8605 55.5719 28.8146 55.4766 29.7211C55.3814 30.3413 55.3338 30.4367 54.7147 30.4844C54.2862 30.5321 53.8576 30.5321 53.4767 30.4367C53.0481 30.3413 53.0005 30.2935 53.0481 29.8642C53.1433 29.0532 53.2386 28.2899 53.3338 27.4789C53.6195 25.0935 53.9052 22.6605 54.1909 20.2752C54.1909 20.0844 54.2386 19.9413 54.2386 19.7504C54.3338 19.0348 54.3814 19.0348 55.0957 18.9394C55.4766 18.8917 55.8576 18.8917 56.2386 18.9871C56.6671 19.0825 56.7624 19.1302 56.7147 19.6073C56.6195 20.5614 56.4766 21.5156 56.3814 22.5174C56.2386 23.0422 56.1909 23.5192 56.0957 24.0917Z" stroke="white" stroke-width="0.5" stroke-miterlimit="10"/>
<path id="Vector_27" d="M67.0954 23.6623C67.1907 23.6146 67.1907 23.4715 67.2383 23.3761C67.3811 22.8513 67.4288 22.7559 67.9526 22.7559C68.3335 22.7082 68.7145 22.7082 69.0954 22.7559C69.6192 22.8036 69.7145 22.9467 69.6669 23.4238C69.524 24.6165 69.3335 25.8091 69.1907 27.0018C69.1431 27.3834 69.0954 27.7174 69.0478 28.099C69.0002 28.4807 69.0954 28.8623 69.4764 29.1009C69.8097 29.3394 69.8097 29.4825 69.5716 29.8165C69.0954 30.4366 68.4764 30.7229 67.7145 30.6275C67.1907 30.5798 66.8097 30.2935 66.5716 29.7687C66.524 29.6733 66.4764 29.5779 66.4288 29.4825C66.1907 29.4348 66.1431 29.6256 66.0002 29.7687C65.4764 30.2458 64.905 30.5798 64.1907 30.6275C63.1431 30.7229 62.3335 30.2935 61.8097 29.3394C61.524 28.8146 61.3812 28.1944 61.3335 27.5743C61.2859 26.1908 61.6192 24.9504 62.4764 23.9009C63.0002 23.2807 63.6192 22.8513 64.4288 22.7082C65.3335 22.5651 66.1431 22.7559 66.7621 23.5192C66.8097 23.5669 66.8573 23.6146 66.905 23.6623C67.0478 23.6623 67.0954 23.6623 67.0954 23.6623ZM66.8097 26.1908C66.8097 25.7614 66.8097 25.3321 66.6192 24.9504C66.3335 24.3302 65.7145 24.1394 65.0954 24.4733C64.7145 24.6642 64.4764 24.9981 64.3335 25.332C63.9526 26.1431 63.905 27.0018 64.0478 27.8605C64.1431 28.2898 64.3335 28.6715 64.8097 28.8146C65.2859 28.9577 65.6669 28.7669 66.0002 28.433C66.1431 28.2898 66.2383 28.1467 66.3335 28.0036C66.7145 27.4311 66.8573 26.8587 66.8097 26.1908Z" fill="#5C5D5F"/>
<path id="Vector_28" d="M67.0954 23.6623C67.1907 23.6146 67.1907 23.4715 67.2383 23.3761C67.3811 22.8513 67.4288 22.7559 67.9526 22.7559C68.3335 22.7082 68.7145 22.7082 69.0954 22.7559C69.6192 22.8036 69.7145 22.9467 69.6669 23.4238C69.524 24.6165 69.3335 25.8091 69.1907 27.0018C69.1431 27.3834 69.0954 27.7174 69.0478 28.099C69.0002 28.4807 69.0954 28.8623 69.4764 29.1009C69.8097 29.3394 69.8097 29.4825 69.5716 29.8165C69.0954 30.4366 68.4764 30.7229 67.7145 30.6275C67.1907 30.5798 66.8097 30.2935 66.5716 29.7687C66.524 29.6733 66.4764 29.5779 66.4288 29.4825C66.1907 29.4348 66.1431 29.6256 66.0002 29.7687C65.4764 30.2458 64.905 30.5798 64.1907 30.6275C63.1431 30.7229 62.3335 30.2935 61.8097 29.3394C61.524 28.8146 61.3812 28.1944 61.3335 27.5743C61.2859 26.1908 61.6192 24.9504 62.4764 23.9009C63.0002 23.2807 63.6192 22.8513 64.4288 22.7082C65.3335 22.5651 66.1431 22.7559 66.7621 23.5192C66.8097 23.5669 66.8573 23.6146 66.905 23.6623C67.0478 23.6623 67.0954 23.6623 67.0954 23.6623ZM66.8097 26.1908C66.8097 25.7614 66.8097 25.3321 66.6192 24.9504C66.3335 24.3302 65.7145 24.1394 65.0954 24.4733C64.7145 24.6642 64.4764 24.9981 64.3335 25.332C63.9526 26.1431 63.905 27.0018 64.0478 27.8605C64.1431 28.2898 64.3335 28.6715 64.8097 28.8146C65.2859 28.9577 65.6669 28.7669 66.0002 28.433C66.1431 28.2898 66.2383 28.1467 66.3335 28.0036C66.7145 27.4311 66.8573 26.8587 66.8097 26.1908Z" stroke="white" stroke-width="0.5" stroke-miterlimit="10"/>
<path id="Vector_29" d="M72.4765 22.7082C72.7622 22.7082 73.0003 22.7559 73.286 22.7559C73.5717 22.8036 73.667 22.9467 73.667 23.233C73.6193 23.71 73.5717 24.2348 73.5241 24.7119C73.3812 25.7614 73.2384 26.7632 73.1432 27.8128C73.0955 28.3375 73.0955 28.8623 73.6193 29.1486C73.8098 29.244 73.8098 29.4348 73.7146 29.6256C73.3336 30.4366 71.9527 30.866 71.1908 30.3889C70.6193 30.055 70.5241 29.4825 70.5717 28.91C70.667 28.0036 70.8098 27.0972 70.9051 26.1908C71.0003 25.3798 71.1432 24.521 71.2384 23.71C71.3336 22.8036 71.4289 22.7082 72.3336 22.7082C72.286 22.7559 72.3812 22.7559 72.4765 22.7082Z" fill="#5C5D5F"/>
<path id="Vector_30" d="M72.4765 22.7082C72.7622 22.7082 73.0003 22.7559 73.286 22.7559C73.5717 22.8036 73.667 22.9467 73.667 23.233C73.6193 23.71 73.5717 24.2348 73.5241 24.7119C73.3812 25.7614 73.2384 26.7632 73.1432 27.8128C73.0955 28.3375 73.0955 28.8623 73.6193 29.1486C73.8098 29.244 73.8098 29.4348 73.7146 29.6256C73.3336 30.4366 71.9527 30.866 71.1908 30.3889C70.6193 30.055 70.5241 29.4825 70.5717 28.91C70.667 28.0036 70.8098 27.0972 70.9051 26.1908C71.0003 25.3798 71.1432 24.521 71.2384 23.71C71.3336 22.8036 71.4289 22.7082 72.3336 22.7082C72.286 22.7559 72.3812 22.7559 72.4765 22.7082Z" stroke="white" stroke-width="0.5" stroke-miterlimit="10"/>
<path id="Vector_31" d="M72.7147 21.7541C72.429 21.7541 72.1909 21.7064 71.9528 21.5633C71.2861 21.2293 71.1432 20.5137 71.5242 19.9412C71.9528 19.2733 73.0004 18.9871 73.7147 19.3688C74.429 19.7027 74.5718 20.466 74.1432 21.0862C73.7147 21.5633 73.2385 21.7541 72.7147 21.7541Z" fill="#5C5D5F"/>
<path id="Vector_32" d="M72.7147 21.7541C72.429 21.7541 72.1909 21.7064 71.9528 21.5633C71.2861 21.2293 71.1432 20.5137 71.5242 19.9412C71.9528 19.2733 73.0004 18.9871 73.7147 19.3688C74.429 19.7027 74.5718 20.466 74.1432 21.0862C73.7147 21.5633 73.2385 21.7541 72.7147 21.7541Z" stroke="white" stroke-width="0.5" stroke-miterlimit="10"/>
<path id="Vector_33" d="M92.5716 18.844C92.7621 18.844 93.0002 18.8917 93.1906 18.9394C94.0002 19.2734 94.1906 20.0844 93.6668 20.7523C93.1906 21.3724 92.2383 21.5633 91.5716 21.2293C90.9525 20.8954 90.7621 20.2275 91.0954 19.655C91.4287 19.0825 91.9525 18.844 92.5716 18.844Z" fill="#5C5D5F"/>
<path id="Vector_34" d="M92.5716 18.844C92.7621 18.844 93.0002 18.8917 93.1906 18.9394C94.0002 19.2734 94.1906 20.0844 93.6668 20.7523C93.1906 21.3724 92.2383 21.5633 91.5716 21.2293C90.9525 20.8954 90.7621 20.2275 91.0954 19.655C91.4287 19.0825 91.9525 18.844 92.5716 18.844Z" stroke="white" stroke-miterlimit="10"/>
</g>
</g>
</g>
</svg>
