<svg width="163" height="193" viewBox="0 0 163 193" fill="none" xmlns="http://www.w3.org/2000/svg">
<g clip-path="url(#clip0_1_408)">
<path d="M115.919 161.962L117.531 193C117.531 193 49.3296 127.919 40.8329 108.877C32.3363 89.8349 48.33 42.7312 48.33 42.7312L83.8162 62.2742L115.919 161.962Z" fill="#9F616A"/>
<path d="M11.3444 29.7025L0.848535 30.7047C0.848535 30.7047 -4.64933 42.7312 12.3441 43.7334L11.3444 29.7025Z" fill="#9F616A"/>
<path d="M11.3444 48.2433L0.848535 49.2455C0.848535 49.2455 -4.64933 61.272 12.3441 62.2742L11.3444 48.2433Z" fill="#9F616A"/>
<path d="M11.3444 68.2875L0.848535 69.2897C0.848535 69.2897 -4.64933 81.3162 12.3441 82.3184L11.3444 68.2875Z" fill="#9F616A"/>
<path d="M14.3433 88.3316L3.84737 89.3338C3.84737 89.3338 -1.65051 101.36 15.3429 102.363L14.3433 88.3316Z" fill="#9F616A"/>
<path d="M6.23458 34.5339H7.03098V12.66C7.03098 10.9975 7.35759 9.35124 7.99217 7.81525C8.62674 6.27927 9.55685 4.88363 10.7294 3.70804C11.9019 2.53245 13.2939 1.59992 14.8259 0.963692C16.3579 0.327466 17.9999 1.27377e-06 19.6582 0H65.8809C67.5391 -3.39662e-06 69.1811 0.327456 70.7131 0.963678C72.2451 1.5999 73.6371 2.53243 74.8097 3.70802C75.9822 4.88361 76.9123 6.27923 77.5469 7.81521C78.1815 9.35119 78.5081 10.9975 78.5081 12.66V132.662C78.5081 134.324 78.1815 135.971 77.5469 137.507C76.9123 139.043 75.9822 140.438 74.8097 141.614C73.6371 142.79 72.2451 143.722 70.7131 144.358C69.1811 144.994 67.5391 145.322 65.8809 145.322H19.6582C16.3093 145.322 13.0975 143.988 10.7294 141.614C8.36138 139.24 7.031 136.02 7.03099 132.662V50.1041H6.23458V34.5339Z" fill="#3F3D56"/>
<path d="M19.1487 3.29371H25.1823C24.9048 3.97574 24.7989 4.71572 24.8739 5.44846C24.9488 6.1812 25.2024 6.88421 25.6122 7.49556C26.022 8.10691 26.5754 8.60785 27.2238 8.95423C27.8722 9.30061 28.5956 9.48181 29.3303 9.48187H55.8106C56.5453 9.48181 57.2687 9.30061 57.9171 8.95423C58.5655 8.60785 59.1189 8.10692 59.5287 7.49557C59.9385 6.88421 60.1921 6.1812 60.267 5.44846C60.342 4.71572 60.2361 3.97573 59.9586 3.2937H65.594C68.095 3.2937 70.4935 4.28978 72.2619 6.06281C74.0303 7.83584 75.0239 10.2406 75.0239 12.748V132.574C75.0239 133.815 74.7799 135.045 74.306 136.192C73.8322 137.339 73.1376 138.381 72.2619 139.259C71.3863 140.137 70.3467 140.833 69.2026 141.309C68.0586 141.784 66.8323 142.028 65.594 142.028H19.1487C17.9104 142.028 16.6841 141.784 15.5401 141.309C14.396 140.833 13.3564 140.137 12.4808 139.259C11.6051 138.381 10.9105 137.339 10.4366 136.192C9.96275 135.045 9.71885 133.815 9.71885 132.574V12.7481C9.71885 11.5065 9.96275 10.2771 10.4366 9.13003C10.9105 7.98298 11.6051 6.94074 12.4808 6.06282C13.3564 5.1849 14.396 4.4885 15.5401 4.01337C16.6841 3.53825 17.9104 3.29371 19.1487 3.29371Z" fill="white"/>
<path d="M52.3222 36.8629H32.4205V41.6779H52.3222V36.8629Z" fill="#429559"/>
<path d="M53.2696 57.5525H31.4731V62.3674H53.2696V57.5525Z" fill="#E5E5E5"/>
<path d="M66.6953 67.8955H18.0474V72.7105H66.6953V67.8955Z" fill="#E5E5E5"/>
<path d="M66.6953 78.2386H18.0474V83.0535H66.6953V78.2386Z" fill="#E5E5E5"/>
<path d="M163 178.128L107.057 114.138L105.058 73.0479L84.0661 37.9707L78.0684 22.9375C78.0684 22.9375 64.0739 24.4408 75.5694 53.0038L80.3175 68.2875C76.0375 77.5301 73.8201 87.5976 73.8201 97.7878V132.81C73.8201 141.057 113.017 185.977 117.579 192.838L163 178.128Z" fill="#9F616A"/>
<path opacity="0.2" d="M79.7141 40.943L83.8872 38.8868L83.745 38.5964L79.8892 40.4965L74.0685 25.1964L73.7673 25.3118L79.7141 40.943Z" fill="black"/>
<path opacity="0.2" d="M0.904432 30.5524L0.792952 30.8559L6.97506 33.1391L7.08654 32.8356L0.904432 30.5524Z" fill="black"/>
<path opacity="0.2" d="M0.904432 49.3046L0.792952 49.608L6.97506 51.8912L7.08654 51.5878L0.904432 49.3046Z" fill="black"/>
<path opacity="0.2" d="M0.904434 69.35L0.792953 69.6534L6.97507 71.9366L7.08655 71.6332L0.904434 69.35Z" fill="black"/>
<path opacity="0.2" d="M4.14326 89.4013L4.00375 89.6927L7.01356 91.1411L7.15307 90.8497L4.14326 89.4013Z" fill="black"/>
<path d="M42.396 124.606C50.0952 124.606 56.3366 118.349 56.3366 110.63C56.3366 102.91 50.0952 96.6528 42.396 96.6528C34.6968 96.6528 28.4554 102.91 28.4554 110.63C28.4554 118.349 34.6968 124.606 42.396 124.606Z" fill="#429559"/>
<path d="M41.0675 116.53L36.8953 111.151L39.3216 109.259L41.2971 111.805L47.9713 104.742L50.2032 106.862L41.0675 116.53Z" fill="white"/>
</g>
<defs>
<clipPath id="clip0_1_408">
<rect width="163" height="193" fill="white"/>
</clipPath>
</defs>
</svg>
