<svg width="191" height="182" viewBox="0 0 191 182" fill="none" xmlns="http://www.w3.org/2000/svg">
<path d="M115.052 80.3552C109.234 77.3019 105.41 68.5724 105.628 59.9632C105.846 51.3541 109.811 43.3024 115.281 39.1969C120.751 35.0913 127.503 34.7805 133.373 37.6351C139.243 40.4896 147.125 41.2672 150.653 48.3624C153.364 53.8148 152.388 65.9787 150.468 72.0416C148.809 77.2819 144.751 80.2345 140.795 81.8868C136.416 83.6992 131.747 84.416 127.105 83.9888C122.462 83.5616 117.954 82.0002 113.885 79.4104L115.052 80.3552Z" fill="#2F2E41"/>
<path d="M139.534 82.6229C146.415 74.7618 146.415 62.0166 139.534 54.1555C132.653 46.2945 121.497 46.2945 114.616 54.1555C107.735 62.0166 107.735 74.7618 114.616 82.6229C121.497 90.4839 132.653 90.4839 139.534 82.6229Z" fill="#FFB8B8"/>
<path d="M145.868 174.045C144.034 176.38 141.977 178.473 139.735 180.285C139.279 180.655 138.814 181.015 138.34 181.358C138.255 181.428 138.171 181.487 138.086 181.546C138.081 181.482 138.081 181.423 138.081 181.358H97.7185C97.6372 181.282 97.5602 181.199 97.4883 181.111C97.2347 180.854 96.9858 180.569 96.7462 180.285C95.1653 178.437 93.8298 176.335 92.7822 174.045L97.7137 158.114L99.6111 151.971L102.368 143.075L105.336 133.476C105.078 132.588 104.868 131.683 104.707 130.766V130.761C101.894 114.46 115.739 98.6421 115.739 98.6421C115.847 98.5455 115.955 98.4543 116.064 98.3685C117.398 97.2419 118.847 96.3049 120.38 95.5784C126.87 92.5039 133.666 93.7433 138.241 95.3316C139.831 95.877 141.385 96.5512 142.891 97.349C143.426 97.6388 143.717 97.8212 143.717 97.8212L144.173 113.575L144.793 135.112L145.126 147.126L145.544 162.284L145.723 168.846L145.868 174.045Z" fill="#00BFA6"/>
<path d="M165.704 180.283L161.271 154.555L160.651 150.96L163.647 135.636L162.243 127.485L157.006 97.0893C156.877 96.3573 156.558 95.6867 156.091 95.165C155.623 94.6433 155.029 94.2948 154.385 94.165L147.979 92.9041L142.029 91.729C141.455 91.6116 140.865 91.6756 140.321 91.9139C139.777 92.1522 139.3 92.5558 138.943 93.0812C138.493 93.7179 138.246 94.5109 138.243 95.3293C138.244 95.835 138.335 96.3352 138.511 96.7995C142.855 108.373 141.23 129.406 139.661 149.742C139.614 150.337 139.568 150.933 139.525 151.529C139.196 155.757 138.886 159.92 138.633 163.939C138.548 165.275 138.473 166.601 138.403 167.904C138.173 172.251 138.041 176.409 138.069 180.283C138.069 180.642 138.074 181.002 138.083 181.356C138.083 181.42 138.083 181.479 138.088 181.544C138.173 181.485 138.257 181.426 138.342 181.356H165.887L165.704 180.283Z" fill="#2F2E41"/>
<path d="M120.381 95.5761C120.252 94.9785 119.994 94.4274 119.631 93.9726C119.267 93.5178 118.811 93.1738 118.302 92.9718C117.793 92.7698 117.248 92.7162 116.716 92.8159C116.184 92.9155 115.683 93.1653 115.257 93.5425L113.627 95.2327L101.261 108.094C100.911 108.455 100.635 108.901 100.453 109.398C99.3025 112.547 97.1561 118.476 94.62 125.859C93.7229 128.478 92.7742 131.284 91.802 134.208C90.1816 139.086 95.6016 146.555 93.9765 151.845C93.6947 152.773 93.3957 153.685 93.0795 154.582C89.7871 164.052 85.1093 172.052 83.4936 180.283C83.4232 180.642 83.3527 181.002 83.287 181.356H101.176C101.2 181.275 101.223 181.195 101.247 181.109C101.317 180.835 101.393 180.562 101.468 180.283C102.787 175.362 104.262 169.959 105.817 164.283C106.033 163.499 106.249 162.71 106.465 161.916C107.118 159.539 107.782 157.127 108.456 154.678C108.55 154.324 108.649 153.97 108.747 153.616C108.973 152.789 109.2 151.963 109.428 151.137C109.729 150.053 110.03 148.966 110.33 147.875C111.11 145.042 111.894 142.192 112.679 139.359C115.858 127.829 115.163 116.738 117.558 107.885C117.596 107.756 117.629 107.633 117.662 107.509C118.69 103.7 119.597 100.319 120.329 97.5023C120.496 96.8768 120.514 96.212 120.381 95.5761Z" fill="#2F2E41"/>
<path d="M139.603 43.335C140.237 43.4408 140.885 43.3046 141.444 42.9476C142.004 42.5906 142.445 42.0327 142.7 41.3603C142.935 40.679 143.03 39.9453 142.978 39.2154C142.927 38.4856 142.729 37.7789 142.402 37.1496C141.734 35.8957 140.803 34.8523 139.693 34.1145C138.414 33.1381 136.936 32.557 135.402 32.4279C134.636 32.3705 133.869 32.5018 133.152 32.8128C132.435 33.1238 131.784 33.6072 131.245 34.2303C130.719 34.8689 130.372 35.6723 130.247 36.5378C130.123 37.4032 130.228 38.2913 130.548 39.0884C131.192 40.5078 132.544 41.3037 133.861 41.8441C136.474 42.9135 139.258 43.3311 142.024 43.0689L139.603 43.335Z" fill="#2F2E41"/>
<path d="M145.87 65.0391C143.124 65.9526 143.274 64.2623 141.768 61.4848C140.263 58.7072 138.306 55.4386 135.451 55.6125C133.111 55.7551 131.481 58.1836 129.813 60.0641C126.84 63.4158 122.524 65.5381 118.445 64.515C114.365 63.4919 111.001 58.6836 111.898 54.023C112.4 51.4124 114.09 49.2409 116.116 47.9035C118.142 46.5661 120.481 45.9769 122.806 45.6694C127.984 44.9896 133.229 45.6164 138.172 47.5056C141.584 48.8134 145.014 50.9288 146.712 54.5536C148.41 58.1784 149.896 63.4238 146.587 65.0391H145.87Z" fill="#2F2E41"/>
<path d="M191 68.2181V86.6812C190.685 86.7724 190.375 86.8582 190.061 86.9333C187.797 87.5075 185.491 87.8884 183.199 88.205C179.643 88.6986 175.994 89.0635 172.528 88.0494C167.681 86.6329 163.623 82.5443 161.162 77.5596C158.706 72.5804 157.738 66.7748 157.701 61.0551C157.672 56.6016 158.18 52.1428 157.912 47.7001C157.64 43.2574 156.47 38.6591 153.652 35.5846C150.834 32.5047 146.072 31.496 142.981 34.2056C142.457 34.6901 141.963 35.2154 141.502 35.7777C140.905 36.5405 140.202 37.1858 139.421 37.6879C138.022 38.4927 135.81 37.865 135.716 36.0782L137.181 32.9501C137.134 32.8803 137.082 32.8052 137.035 32.7354C134.889 29.3551 135.786 24.2095 138.44 21.3067C141.15 18.3342 145.184 17.4113 148.923 17.7869C152.63 18.213 156.175 19.7456 159.2 22.2309C162.225 24.7163 164.625 28.0669 166.159 31.9467C168.526 38.1225 168.503 45.189 170.645 51.4775C171.798 54.8187 173.532 57.859 175.74 60.4158C177.948 62.9726 180.586 64.9932 183.495 66.3563C185.594 67.3189 187.807 67.921 190.061 68.143C190.375 68.1752 190.685 68.1967 191 68.2181Z" fill="#2F2E41"/>
<path d="M134.139 147.684H133.939V141.451C133.939 140.494 133.607 139.576 133.014 138.899C132.422 138.223 131.619 137.843 130.781 137.843H119.221C118.806 137.843 118.395 137.936 118.012 138.117C117.629 138.299 117.281 138.564 116.988 138.899C116.694 139.234 116.462 139.632 116.303 140.07C116.144 140.508 116.063 140.977 116.063 141.451V175.649C116.063 176.606 116.395 177.524 116.988 178.201C117.58 178.877 118.383 179.257 119.221 179.257H130.781C131.196 179.257 131.607 179.164 131.99 178.983C132.373 178.801 132.721 178.536 133.014 178.201C133.308 177.866 133.54 177.468 133.699 177.03C133.858 176.592 133.939 176.123 133.939 175.649V152.122H134.139V147.684Z" fill="#3F3D56"/>
<path d="M125.099 155.04C127.08 155.04 128.686 153.205 128.686 150.942C128.686 148.679 127.08 146.844 125.099 146.844C123.118 146.844 121.512 148.679 121.512 150.942C121.512 153.205 123.118 155.04 125.099 155.04Z" fill="white"/>
<path d="M123.566 161.864C123.481 161.746 123.388 161.633 123.294 161.521C122.519 160.613 121.586 159.902 120.555 159.432C119.524 158.963 118.419 158.745 117.31 158.795C116.957 158.816 116.606 158.862 116.258 158.934L116.061 158.709L114.032 156.391L109.429 151.138L106.574 147.876L102.37 143.074L99.2139 139.473L97.9881 138.073L100.153 128.388L94.6206 125.861L87.4113 122.572L87.2986 122.518L87.0309 123.355L85.1052 129.456L83.6681 133.99C82.8315 136.668 82.6891 139.566 83.2581 142.334C83.8271 145.103 85.0832 147.625 86.8759 149.598C87.2846 150.048 87.7193 150.465 88.1768 150.848L93.0801 154.583L94.6911 155.806L97.7157 158.113L102.708 161.918L105.817 164.284L109.763 167.289C109.744 167.583 109.739 167.879 109.748 168.174C109.795 169.441 110.074 170.683 110.568 171.818C111.063 172.953 111.761 173.957 112.618 174.763C113.644 175.739 114.874 176.395 116.188 176.668H116.192C117.838 177.015 119.537 176.759 121.049 175.938C122.045 175.388 122.93 174.605 123.646 173.64C124.362 172.675 124.893 171.55 125.205 170.336C125.367 169.725 125.468 169.095 125.506 168.458C125.585 167.267 125.454 166.069 125.12 164.937C124.787 163.804 124.259 162.759 123.566 161.864Z" fill="#FFB8B8"/>
<path d="M169.897 138.157L169.173 133.199L168.14 126.133L162.241 127.485L154.572 129.245L155.168 139.219L154.727 139.568L145.127 147.123L139.524 151.528L133.939 155.922L133.935 155.928L133.892 155.96C133.564 155.814 133.226 155.695 132.883 155.606C131.8 155.326 130.678 155.309 129.59 155.557C128.502 155.804 127.471 156.311 126.566 157.044C125.72 157.725 125.002 158.592 124.452 159.593C124.063 160.297 123.764 161.061 123.564 161.862C123.435 162.369 123.344 162.888 123.292 163.413C123.172 164.655 123.281 165.912 123.61 167.104C123.939 168.295 124.482 169.396 125.204 170.334C126.095 171.508 127.24 172.394 128.524 172.905C130.278 173.614 132.197 173.586 133.935 172.824H133.939C134.294 172.673 134.638 172.49 134.968 172.277C136.508 171.298 137.716 169.759 138.401 167.904C138.586 167.416 138.73 166.909 138.833 166.391C138.888 166.102 138.931 165.81 138.96 165.516L140.806 164.609L145.545 162.281L161.269 154.554L162.791 153.808C164.089 153.093 165.271 152.13 166.285 150.959C167.731 149.304 168.813 147.281 169.441 145.055C170.069 142.829 170.225 140.465 169.897 138.157Z" fill="#FFB8B8"/>
<path d="M117.149 101.335C116.913 100.292 116.547 99.2926 116.064 98.3674C115.434 97.1554 114.606 96.0919 113.627 95.2339C113.214 94.8727 112.777 94.548 112.321 94.2627C110.015 92.8183 107.302 92.4788 104.777 93.3189C102.252 94.159 100.122 96.1099 98.8558 98.743L87.4101 122.572L87.0297 123.355L84.3573 128.924L85.1041 129.456L91.8015 134.21L99.2128 139.473L99.7341 139.843L104.708 130.765V130.76L115.961 110.204C116.394 109.416 116.741 108.571 116.994 107.687C117.027 107.564 117.06 107.435 117.093 107.312C117.584 105.362 117.603 103.296 117.149 101.335Z" fill="#2F2E41"/>
<path d="M160.407 99.5956C159.491 96.8647 157.686 94.6439 155.371 93.3971C153.055 92.1503 150.407 91.9739 147.98 92.9047C147.675 93.0227 147.374 93.1569 147.078 93.3071C145.377 94.1751 143.926 95.576 142.894 97.3474C142.477 98.0563 142.133 98.8179 141.87 99.617C141.404 101.008 141.185 102.49 141.223 103.978C141.262 105.466 141.558 106.931 142.095 108.288L144.176 113.573L154.447 139.693L154.729 139.569L163.648 135.636L169.176 133.2L171.336 132.251L160.407 99.5956Z" fill="#2F2E41"/>
<path d="M183.015 11.2671H72.1744C70.0578 11.2705 68.0287 12.2326 66.532 13.9425C65.0353 15.6524 64.1931 17.9705 64.1901 20.3886V172.235C64.1931 174.653 65.0353 176.971 66.532 178.681C68.0287 180.391 70.0578 181.353 72.1744 181.357H183.015C185.132 181.354 187.162 180.392 188.658 178.682C190.155 176.972 190.997 174.653 190.999 172.235V20.3886C190.997 17.9702 190.155 15.6515 188.658 13.9415C187.162 12.2314 185.132 11.2696 183.015 11.2671ZM190.06 172.235C190.058 174.369 189.315 176.414 187.994 177.923C186.673 179.432 184.883 180.281 183.015 180.283H72.1744C70.3067 180.281 68.5161 179.432 67.1954 177.923C65.8747 176.414 65.1317 174.369 65.1295 172.235V20.3886C65.1317 18.2548 65.8747 16.2092 67.1954 14.7004C68.5161 13.1916 70.3067 12.3428 72.1744 12.3402H183.015C184.883 12.3428 186.673 13.1916 187.994 14.7004C189.315 16.2092 190.058 18.2548 190.06 20.3886V172.235Z" fill="#EFEEF6"/>
<path d="M97.3606 52.3795C97.0307 52.3783 96.7044 52.3017 96.4004 52.154C96.0965 52.0063 95.821 51.7906 95.59 51.5193L83.7729 33.7474C83.4998 33.3391 83.1493 33.0082 82.7482 32.78C82.347 32.5518 81.9059 32.4324 81.4586 32.4309H13.0224C9.56864 32.4308 6.25634 30.8497 3.81417 28.0354C1.37199 25.221 -6.18582e-06 21.4039 0 17.4238C6.18586e-06 13.4437 1.37201 9.62662 3.81419 6.81227C6.25637 3.99791 9.56868 2.41683 13.0224 2.41684H98.5428C101.693 2.41691 104.737 3.73304 107.109 6.12134C109.482 8.50963 111.023 11.8082 111.447 15.4057C111.871 19.0032 111.148 22.6557 109.414 25.6864C107.679 28.7172 105.05 30.9206 102.014 31.8884C101.405 32.0873 100.869 32.5103 100.488 33.0928C100.107 33.6754 99.9016 34.3856 99.9034 35.1152V49.4603C99.9086 50.0375 99.7626 50.6032 99.4843 51.0832C99.206 51.5632 98.8084 51.9352 98.3436 52.1505C98.0322 52.3006 97.6981 52.3784 97.3606 52.3795Z" fill="#00BFA6"/>
<mask id="mask0_1_454" style="mask-type:alpha" maskUnits="userSpaceOnUse" x="11" y="0" width="16" height="16">
<rect x="11" width="16" height="16" fill="#D9D9D9"/>
</mask>
<g mask="url(#mask0_1_454)">
<path d="M17.8326 14V10.0333L14.3993 12.0167L13.2326 10L16.666 8L13.2326 6.01667L14.3993 4L17.8326 5.98333V2H20.166V5.98333L23.5993 4L24.766 6.01667L21.3326 8L24.766 10L23.5993 12.0167L20.166 10.0333V14H17.8326Z" fill="white"/>
</g>
<mask id="mask1_1_454" style="mask-type:alpha" maskUnits="userSpaceOnUse" x="35" y="0" width="16" height="16">
<rect x="35" width="16" height="16" fill="#D9D9D9"/>
</mask>
<g mask="url(#mask1_1_454)">
<path d="M41.8326 14V10.0333L38.3993 12.0167L37.2326 10L40.666 8L37.2326 6.01667L38.3993 4L41.8326 5.98333V2H44.166V5.98333L47.5993 4L48.766 6.01667L45.3326 8L48.766 10L47.5993 12.0167L44.166 10.0333V14H41.8326Z" fill="white"/>
</g>
<mask id="mask2_1_454" style="mask-type:alpha" maskUnits="userSpaceOnUse" x="59" y="0" width="16" height="16">
<rect x="59" width="16" height="16" fill="#D9D9D9"/>
</mask>
<g mask="url(#mask2_1_454)">
<path d="M65.8326 14V10.0333L62.3993 12.0167L61.2326 10L64.666 8L61.2326 6.01667L62.3993 4L65.8326 5.98333V2H68.166V5.98333L71.5993 4L72.766 6.01667L69.3326 8L72.766 10L71.5993 12.0167L68.166 10.0333V14H65.8326Z" fill="white"/>
</g>
<mask id="mask3_1_454" style="mask-type:alpha" maskUnits="userSpaceOnUse" x="83" y="0" width="16" height="16">
<rect x="83" width="16" height="16" fill="#D9D9D9"/>
</mask>
<g mask="url(#mask3_1_454)">
<path d="M89.8326 14V10.0333L86.3993 12.0167L85.2326 10L88.666 8L85.2326 6.01667L86.3993 4L89.8326 5.98333V2H92.166V5.98333L95.5993 4L96.766 6.01667L93.3326 8L96.766 10L95.5993 12.0167L92.166 10.0333V14H89.8326Z" fill="white"/>
</g>
</svg>
