<svg width="28" height="28" viewBox="0 0 28 28" fill="none" xmlns="http://www.w3.org/2000/svg">
<g id="Group 1000001783">
<circle id="Ellipse 195" cx="14" cy="14" r="14" fill="white"/>
<g id="storefront">
<mask id="mask0_23_350" style="mask-type:alpha" maskUnits="userSpaceOnUse" x="4" y="4" width="20" height="20">
<rect id="Bounding box" x="4.375" y="4" width="19.25" height="19.25" fill="#D9D9D9"/>
</mask>
<g mask="url(#mask0_23_350)">
<path id="storefront_2" d="M8.44331 20.6426C8.03816 20.6426 7.69523 20.5023 7.4145 20.2215C7.13377 19.9408 6.9934 19.5979 6.9934 19.1927V12.7853C6.67051 12.52 6.42808 12.1758 6.26611 11.7526C6.10416 11.3295 6.10082 10.8726 6.25609 10.3821L7.06744 7.73219C7.17438 7.39491 7.35588 7.12292 7.61193 6.91623C7.86798 6.70954 8.1739 6.6062 8.52969 6.6062H19.4781C19.8339 6.6062 20.1378 6.70492 20.3897 6.90235C20.6417 7.09978 20.8252 7.37126 20.9404 7.71677L21.7671 10.3821C21.9224 10.8726 21.9191 11.3279 21.7571 11.748C21.5952 12.1681 21.3527 12.519 21.0298 12.8007V19.1927C21.0298 19.5979 20.8895 19.9408 20.6087 20.2215C20.328 20.5023 19.9851 20.6426 19.5799 20.6426H8.44331ZM15.7762 12.2208C16.2143 12.2208 16.5436 12.0868 16.7642 11.819C16.9847 11.5511 17.075 11.2634 17.0349 10.956L16.5475 7.80929H14.6132V10.9775C14.6132 11.3148 14.7273 11.6064 14.9556 11.8521C15.1839 12.0979 15.4574 12.2208 15.7762 12.2208ZM12.1668 12.2208C12.536 12.2208 12.8355 12.0979 13.0653 11.8521C13.2952 11.6064 13.4101 11.3148 13.4101 10.9775V7.80929H11.4758L10.9884 10.9868C10.9452 11.2716 11.0346 11.5485 11.2568 11.8174C11.4789 12.0863 11.7822 12.2208 12.1668 12.2208ZM8.59755 12.2208C8.89474 12.2208 9.15028 12.1172 9.36418 11.91C9.57807 11.7028 9.71021 11.4423 9.76059 11.1287L10.2326 7.80929H8.52969C8.44228 7.80929 8.37287 7.82857 8.32145 7.86714C8.27003 7.9057 8.23146 7.96355 8.20575 8.04069L7.43453 10.6505C7.3286 10.995 7.37847 11.3429 7.58414 11.694C7.78981 12.0452 8.12761 12.2208 8.59755 12.2208ZM19.4257 12.2208C19.8596 12.2208 20.1918 12.0503 20.4221 11.7095C20.6525 11.3686 20.708 11.0156 20.5887 10.6505L19.7774 8.02525C19.7517 7.94813 19.7131 7.89285 19.6617 7.85942C19.6103 7.826 19.5409 7.80929 19.4534 7.80929H17.7906L18.2627 11.1287C18.313 11.4423 18.4452 11.7028 18.6591 11.91C18.873 12.1172 19.1285 12.2208 19.4257 12.2208ZM8.44331 19.4395H19.5799C19.6519 19.4395 19.7111 19.4164 19.7573 19.3701C19.8036 19.3238 19.8267 19.2647 19.8267 19.1927V13.3529C19.7393 13.3848 19.6663 13.4046 19.6077 13.4123C19.5491 13.42 19.4884 13.4239 19.4257 13.4239C19.0647 13.4239 18.7472 13.3586 18.4732 13.228C18.1992 13.0974 17.9336 12.8881 17.6765 12.6002C17.4513 12.8511 17.185 13.0511 16.8775 13.2002C16.5701 13.3493 16.2194 13.4239 15.8256 13.4239C15.4852 13.4239 15.1644 13.3532 14.8631 13.2118C14.5618 13.0704 14.278 12.8665 14.0116 12.6002C13.7638 12.8665 13.4831 13.0704 13.1694 13.2118C12.8558 13.3532 12.5381 13.4239 12.2162 13.4239C11.8542 13.4239 11.5149 13.3583 11.1982 13.2272C10.8814 13.0961 10.6028 12.8871 10.3621 12.6002C10.0248 12.9375 9.71404 13.1591 9.42971 13.265C9.14539 13.3709 8.868 13.4239 8.59755 13.4239C8.53483 13.4239 8.47005 13.42 8.40321 13.4123C8.33635 13.4046 8.26745 13.3848 8.19651 13.3529V19.1927C8.19651 19.2647 8.21964 19.3238 8.26591 19.3701C8.31219 19.4164 8.37132 19.4395 8.44331 19.4395Z" fill="#1C1B1F"/>
</g>
</g>
</g>
</svg>
